<svg width="32" height="32" viewBox="0 0 32 32" fill="none" xmlns="http://www.w3.org/2000/svg">
<path d="M5 7C4.44922 7 4 7.44922 4 8C4 8.55078 4.44922 9 5 9H7.21875L9.84375 19.5C10.0664 20.3906 10.8633 21 11.7812 21H23.25C24.1523 21 24.918 20.4023 25.1562 19.5312L27.75 10H11L11.5 12H25.1562L23.25 19H11.7812L9.15625 8.5C8.93359 7.60938 8.13672 7 7.21875 7H5ZM22 21C20.3555 21 19 22.3555 19 24C19 25.6445 20.3555 27 22 27C23.6445 27 25 25.6445 25 24C25 22.3555 23.6445 21 22 21ZM13 21C11.3555 21 10 22.3555 10 24C10 25.6445 11.3555 27 13 27C14.6445 27 16 25.6445 16 24C16 22.3555 14.6445 21 13 21ZM13 23C13.5625 23 14 23.4375 14 24C14 24.5625 13.5625 25 13 25C12.4375 25 12 24.5625 12 24C12 23.4375 12.4375 23 13 23ZM22 23C22.5625 23 23 23.4375 23 24C23 24.5625 22.5625 25 22 25C21.4375 25 21 24.5625 21 24C21 23.4375 21.4375 23 22 23Z" fill="#D9D2D2"/>
</svg>
